<mxfile host="app.diagrams.net" agent="Mozilla/5.0 (Macintosh; Intel Mac OS X 10_15_7) AppleWebKit/605.1.15 (KHTML, like Gecko) Version/18.1 Safari/605.1.15" version="26.2.12">
  <diagram name="第 1 页" id="mK1rFbLzjuQjEiMRVtcT">
    <mxGraphModel dx="832" dy="719" grid="1" gridSize="10" guides="1" tooltips="1" connect="1" arrows="1" fold="1" page="1" pageScale="1" pageWidth="827" pageHeight="1169" math="0" shadow="0">
      <root>
        <mxCell id="0" />
        <mxCell id="1" parent="0" />
        <mxCell id="jAtMNxWn4MvKUxgzt-hi-12" value="" style="rounded=1;whiteSpace=wrap;html=1;fillColor=#dae8fc;strokeColor=#6c8ebf;" parent="1" vertex="1">
          <mxGeometry x="230" y="287.5" width="450" height="112.5" as="geometry" />
        </mxCell>
        <mxCell id="jAtMNxWn4MvKUxgzt-hi-8" value="" style="rounded=1;whiteSpace=wrap;html=1;fillColor=#dae8fc;strokeColor=#6c8ebf;" parent="1" vertex="1">
          <mxGeometry x="230" y="193" width="450" height="80" as="geometry" />
        </mxCell>
        <mxCell id="jAtMNxWn4MvKUxgzt-hi-3" value="目标路径/轨迹" style="rounded=0;whiteSpace=wrap;html=1;fillColor=#d5e8d4;strokeColor=#82b366;" parent="1" vertex="1">
          <mxGeometry x="250" y="223" width="100" height="30" as="geometry" />
        </mxCell>
        <mxCell id="jAtMNxWn4MvKUxgzt-hi-4" value="制导算法" style="rounded=0;whiteSpace=wrap;html=1;fillColor=#d5e8d4;strokeColor=#82b366;" parent="1" vertex="1">
          <mxGeometry x="400" y="222.5" width="100" height="30" as="geometry" />
        </mxCell>
        <mxCell id="jAtMNxWn4MvKUxgzt-hi-5" value="岸端控制算法" style="rounded=0;whiteSpace=wrap;html=1;fontSize=18;fillColor=#d5e8d4;strokeColor=#82b366;" parent="1" vertex="1">
          <mxGeometry x="70" y="205.5" width="140" height="55" as="geometry" />
        </mxCell>
        <mxCell id="jAtMNxWn4MvKUxgzt-hi-6" value="控制算法" style="rounded=0;whiteSpace=wrap;html=1;fillColor=#d5e8d4;strokeColor=#82b366;" parent="1" vertex="1">
          <mxGeometry x="540" y="223" width="100" height="30" as="geometry" />
        </mxCell>
        <mxCell id="jAtMNxWn4MvKUxgzt-hi-7" value="SRUSV姿态信息" style="rounded=0;whiteSpace=wrap;html=1;fillColor=#e1d5e7;strokeColor=#9673a6;" parent="1" vertex="1">
          <mxGeometry x="250" y="292" width="100" height="30" as="geometry" />
        </mxCell>
        <mxCell id="jAtMNxWn4MvKUxgzt-hi-9" value="岸端通信程序" style="rounded=0;whiteSpace=wrap;html=1;fontSize=18;fillColor=#e1d5e7;strokeColor=#9673a6;" parent="1" vertex="1">
          <mxGeometry x="70" y="311.5" width="140" height="55" as="geometry" />
        </mxCell>
        <mxCell id="jAtMNxWn4MvKUxgzt-hi-10" value="SRUSV速度信息" style="rounded=0;whiteSpace=wrap;html=1;fillColor=#e1d5e7;strokeColor=#9673a6;" parent="1" vertex="1">
          <mxGeometry x="250" y="366" width="100" height="30" as="geometry" />
        </mxCell>
        <mxCell id="jAtMNxWn4MvKUxgzt-hi-11" value="SRUSV位置信息" style="rounded=0;whiteSpace=wrap;html=1;fillColor=#e1d5e7;strokeColor=#9673a6;" parent="1" vertex="1">
          <mxGeometry x="250" y="330" width="100" height="30" as="geometry" />
        </mxCell>
        <mxCell id="jAtMNxWn4MvKUxgzt-hi-13" value="图像信息" style="rounded=0;whiteSpace=wrap;html=1;fillColor=#e1d5e7;strokeColor=#9673a6;" parent="1" vertex="1">
          <mxGeometry x="400" y="307" width="100" height="30" as="geometry" />
        </mxCell>
        <mxCell id="jAtMNxWn4MvKUxgzt-hi-14" value="左电机PWM" style="rounded=0;whiteSpace=wrap;html=1;fillColor=#e1d5e7;strokeColor=#9673a6;" parent="1" vertex="1">
          <mxGeometry x="540" y="302" width="100" height="30" as="geometry" />
        </mxCell>
        <mxCell id="jAtMNxWn4MvKUxgzt-hi-15" value="右电机PWM" style="rounded=0;whiteSpace=wrap;html=1;fillColor=#e1d5e7;strokeColor=#9673a6;" parent="1" vertex="1">
          <mxGeometry x="540" y="352" width="100" height="30" as="geometry" />
        </mxCell>
        <mxCell id="jAtMNxWn4MvKUxgzt-hi-18" value="" style="endArrow=none;html=1;rounded=0;strokeWidth=2;edgeStyle=elbowEdgeStyle;startFill=0;" parent="1" edge="1">
          <mxGeometry width="50" height="50" relative="1" as="geometry">
            <mxPoint x="350" y="343" as="sourcePoint" />
            <mxPoint x="370" y="240" as="targetPoint" />
            <Array as="points">
              <mxPoint x="370" y="290" />
            </Array>
          </mxGeometry>
        </mxCell>
        <mxCell id="jAtMNxWn4MvKUxgzt-hi-19" value="" style="endArrow=classic;html=1;rounded=0;strokeWidth=2;exitX=1;exitY=0.5;exitDx=0;exitDy=0;entryX=0;entryY=0.5;entryDx=0;entryDy=0;" parent="1" source="jAtMNxWn4MvKUxgzt-hi-4" target="jAtMNxWn4MvKUxgzt-hi-6" edge="1">
          <mxGeometry width="50" height="50" relative="1" as="geometry">
            <mxPoint x="470" y="190" as="sourcePoint" />
            <mxPoint x="520" y="140" as="targetPoint" />
          </mxGeometry>
        </mxCell>
        <mxCell id="jAtMNxWn4MvKUxgzt-hi-22" value="" style="strokeWidth=2;html=1;shape=mxgraph.flowchart.annotation_1;align=left;pointerEvents=1;rotation=-180;" parent="1" vertex="1">
          <mxGeometry x="349.63" y="302" width="10" height="82" as="geometry" />
        </mxCell>
        <mxCell id="jAtMNxWn4MvKUxgzt-hi-23" value="" style="endArrow=none;html=1;rounded=0;strokeWidth=2;edgeStyle=elbowEdgeStyle;exitX=0;exitY=0.5;exitDx=0;exitDy=0;exitPerimeter=0;entryX=1;entryY=0.5;entryDx=0;entryDy=0;startFill=1;startArrow=classic;" parent="1" source="jAtMNxWn4MvKUxgzt-hi-24" target="jAtMNxWn4MvKUxgzt-hi-6" edge="1">
          <mxGeometry width="50" height="50" relative="1" as="geometry">
            <mxPoint x="640.37" y="343" as="sourcePoint" />
            <mxPoint x="690.37" y="238" as="targetPoint" />
            <Array as="points">
              <mxPoint x="670" y="250" />
              <mxPoint x="680" y="290" />
            </Array>
          </mxGeometry>
        </mxCell>
        <mxCell id="jAtMNxWn4MvKUxgzt-hi-24" value="" style="strokeWidth=2;html=1;shape=mxgraph.flowchart.annotation_1;align=left;pointerEvents=1;rotation=-180;" parent="1" vertex="1">
          <mxGeometry x="640" y="312" width="10" height="54" as="geometry" />
        </mxCell>
        <mxCell id="jAtMNxWn4MvKUxgzt-hi-26" value="" style="rounded=1;whiteSpace=wrap;html=1;fillColor=#dae8fc;strokeColor=#6c8ebf;" parent="1" vertex="1">
          <mxGeometry x="230" y="90" width="450" height="80" as="geometry" />
        </mxCell>
        <mxCell id="jAtMNxWn4MvKUxgzt-hi-27" value="岸端UI界面" style="rounded=0;whiteSpace=wrap;html=1;fontSize=18;fillColor=#ffe6cc;strokeColor=#d79b00;" parent="1" vertex="1">
          <mxGeometry x="70" y="102.5" width="140" height="55" as="geometry" />
        </mxCell>
        <mxCell id="jAtMNxWn4MvKUxgzt-hi-28" value="SRUSV状态信息" style="rounded=0;whiteSpace=wrap;html=1;fillColor=#ffe6cc;strokeColor=#d79b00;" parent="1" vertex="1">
          <mxGeometry x="250" y="119.5" width="100" height="30" as="geometry" />
        </mxCell>
        <mxCell id="jAtMNxWn4MvKUxgzt-hi-29" value="航行视频" style="rounded=0;whiteSpace=wrap;html=1;fillColor=#ffe6cc;strokeColor=#d79b00;" parent="1" vertex="1">
          <mxGeometry x="400" y="134" width="100" height="30" as="geometry" />
        </mxCell>
        <mxCell id="jAtMNxWn4MvKUxgzt-hi-30" value="运行路径/轨迹" style="rounded=0;whiteSpace=wrap;html=1;fillColor=#ffe6cc;strokeColor=#d79b00;" parent="1" vertex="1">
          <mxGeometry x="540" y="119.5" width="100" height="30" as="geometry" />
        </mxCell>
        <mxCell id="jAtMNxWn4MvKUxgzt-hi-25" value="" style="endArrow=classic;html=1;rounded=0;jumpStyle=arc;edgeStyle=elbowEdgeStyle;strokeWidth=2;endFill=1;dashed=1;dashPattern=1 1;" parent="1" source="jAtMNxWn4MvKUxgzt-hi-13" target="jAtMNxWn4MvKUxgzt-hi-29" edge="1">
          <mxGeometry width="50" height="50" relative="1" as="geometry">
            <mxPoint x="720" y="303" as="sourcePoint" />
            <mxPoint x="840" y="130" as="targetPoint" />
            <Array as="points">
              <mxPoint x="520" y="220" />
            </Array>
          </mxGeometry>
        </mxCell>
        <mxCell id="jAtMNxWn4MvKUxgzt-hi-31" value="" style="endArrow=classic;html=1;rounded=0;jumpStyle=none;edgeStyle=elbowEdgeStyle;strokeWidth=2;endFill=1;" parent="1" edge="1">
          <mxGeometry width="50" height="50" relative="1" as="geometry">
            <mxPoint x="370" y="247" as="sourcePoint" />
            <mxPoint x="350" y="132" as="targetPoint" />
            <Array as="points">
              <mxPoint x="370" y="136.25" />
            </Array>
          </mxGeometry>
        </mxCell>
        <mxCell id="jAtMNxWn4MvKUxgzt-hi-32" value="" style="endArrow=classic;html=1;rounded=0;jumpStyle=arc;edgeStyle=orthogonalEdgeStyle;entryX=0.5;entryY=1;entryDx=0;entryDy=0;strokeWidth=2;" parent="1" target="jAtMNxWn4MvKUxgzt-hi-30" edge="1">
          <mxGeometry width="50" height="50" relative="1" as="geometry">
            <mxPoint x="370" y="179" as="sourcePoint" />
            <mxPoint x="535" y="119.5" as="targetPoint" />
            <Array as="points">
              <mxPoint x="590" y="179" />
            </Array>
          </mxGeometry>
        </mxCell>
        <mxCell id="jAtMNxWn4MvKUxgzt-hi-33" value="" style="endArrow=none;html=1;rounded=0;entryX=0;entryY=0.5;entryDx=0;entryDy=0;strokeWidth=2;jumpStyle=arc;" parent="1" source="jAtMNxWn4MvKUxgzt-hi-3" target="jAtMNxWn4MvKUxgzt-hi-4" edge="1">
          <mxGeometry width="50" height="50" relative="1" as="geometry">
            <mxPoint x="790" y="260" as="sourcePoint" />
            <mxPoint x="840" y="210" as="targetPoint" />
          </mxGeometry>
        </mxCell>
        <mxCell id="jAtMNxWn4MvKUxgzt-hi-34" value="艇端通信程序" style="rounded=0;whiteSpace=wrap;html=1;fontSize=18;fillColor=#f8cecc;strokeColor=#b85450;" parent="1" vertex="1">
          <mxGeometry x="70" y="500.75" width="140" height="55" as="geometry" />
        </mxCell>
        <mxCell id="jAtMNxWn4MvKUxgzt-hi-35" value="艇端执行机构" style="rounded=0;whiteSpace=wrap;html=1;fontSize=18;fillColor=#fff2cc;strokeColor=#d6b656;" parent="1" vertex="1">
          <mxGeometry x="70" y="640" width="140" height="55" as="geometry" />
        </mxCell>
        <mxCell id="jAtMNxWn4MvKUxgzt-hi-41" value="" style="html=1;outlineConnect=0;fillColor=#CCCCCC;strokeColor=#6881B3;gradientColor=none;gradientDirection=north;strokeWidth=2;shape=mxgraph.networks.comm_link_edge;html=1;rounded=0;exitX=0.688;exitY=-0.016;exitDx=0;exitDy=0;exitPerimeter=0;" parent="1" edge="1">
          <mxGeometry width="100" height="100" relative="1" as="geometry">
            <mxPoint x="548.5999999999999" y="469.45000000000005" as="sourcePoint" />
            <mxPoint x="600" y="400" as="targetPoint" />
          </mxGeometry>
        </mxCell>
        <mxCell id="jAtMNxWn4MvKUxgzt-hi-42" value="" style="rounded=1;whiteSpace=wrap;html=1;fillColor=#dae8fc;strokeColor=#6c8ebf;" parent="1" vertex="1">
          <mxGeometry x="230" y="472" width="450" height="112.5" as="geometry" />
        </mxCell>
        <mxCell id="jAtMNxWn4MvKUxgzt-hi-43" value="" style="html=1;outlineConnect=0;fillColor=#CCCCCC;strokeColor=#6881B3;gradientColor=none;gradientDirection=north;strokeWidth=2;shape=mxgraph.networks.comm_link_edge;html=1;rounded=0;exitX=0.688;exitY=-0.016;exitDx=0;exitDy=0;exitPerimeter=0;" parent="1" edge="1">
          <mxGeometry width="100" height="100" relative="1" as="geometry">
            <mxPoint x="274.5" y="469" as="sourcePoint" />
            <mxPoint x="325.5" y="400" as="targetPoint" />
          </mxGeometry>
        </mxCell>
        <mxCell id="jAtMNxWn4MvKUxgzt-hi-44" value="RTK姿态信息" style="rounded=0;whiteSpace=wrap;html=1;fillColor=#f8cecc;strokeColor=#b85450;" parent="1" vertex="1">
          <mxGeometry x="259.63" y="476.25" width="100" height="30" as="geometry" />
        </mxCell>
        <mxCell id="jAtMNxWn4MvKUxgzt-hi-45" value="RTK速度信息" style="rounded=0;whiteSpace=wrap;html=1;fillColor=#f8cecc;strokeColor=#b85450;" parent="1" vertex="1">
          <mxGeometry x="259.63" y="550.25" width="100" height="30" as="geometry" />
        </mxCell>
        <mxCell id="jAtMNxWn4MvKUxgzt-hi-46" value="RTK位置信息" style="rounded=0;whiteSpace=wrap;html=1;fillColor=#f8cecc;strokeColor=#b85450;" parent="1" vertex="1">
          <mxGeometry x="259.63" y="514.25" width="100" height="30" as="geometry" />
        </mxCell>
        <mxCell id="jAtMNxWn4MvKUxgzt-hi-47" value="摄像头控制信息" style="rounded=0;whiteSpace=wrap;html=1;fillColor=#f8cecc;strokeColor=#b85450;" parent="1" vertex="1">
          <mxGeometry x="400" y="513.25" width="100" height="30" as="geometry" />
        </mxCell>
        <mxCell id="jAtMNxWn4MvKUxgzt-hi-49" value="左电机PWM" style="rounded=0;whiteSpace=wrap;html=1;fillColor=#f8cecc;strokeColor=#b85450;" parent="1" vertex="1">
          <mxGeometry x="540" y="483.25" width="100" height="30" as="geometry" />
        </mxCell>
        <mxCell id="jAtMNxWn4MvKUxgzt-hi-50" value="右电机PWM" style="rounded=0;whiteSpace=wrap;html=1;fillColor=#f8cecc;strokeColor=#b85450;" parent="1" vertex="1">
          <mxGeometry x="540" y="543.25" width="100" height="30" as="geometry" />
        </mxCell>
        <mxCell id="jAtMNxWn4MvKUxgzt-hi-51" value="" style="html=1;outlineConnect=0;fillColor=#CCCCCC;strokeColor=#6881B3;gradientColor=none;gradientDirection=north;strokeWidth=2;shape=mxgraph.networks.comm_link_edge;html=1;rounded=0;exitX=0.688;exitY=-0.016;exitDx=0;exitDy=0;exitPerimeter=0;" parent="1" edge="1">
          <mxGeometry width="100" height="100" relative="1" as="geometry">
            <mxPoint x="429.2999999999999" y="472.25000000000006" as="sourcePoint" />
            <mxPoint x="480.7" y="402.8" as="targetPoint" />
          </mxGeometry>
        </mxCell>
        <mxCell id="jAtMNxWn4MvKUxgzt-hi-52" value="" style="rounded=1;whiteSpace=wrap;html=1;fillColor=#dae8fc;strokeColor=#6c8ebf;" parent="1" vertex="1">
          <mxGeometry x="230" y="611.25" width="450" height="112.5" as="geometry" />
        </mxCell>
        <mxCell id="jAtMNxWn4MvKUxgzt-hi-57" value="左电机电调" style="rounded=0;whiteSpace=wrap;html=1;fillColor=#fff2cc;strokeColor=#d6b656;" parent="1" vertex="1">
          <mxGeometry x="540" y="649" width="100" height="31" as="geometry" />
        </mxCell>
        <mxCell id="jAtMNxWn4MvKUxgzt-hi-58" value="右电机电调" style="rounded=0;whiteSpace=wrap;html=1;fillColor=#fff2cc;strokeColor=#d6b656;" parent="1" vertex="1">
          <mxGeometry x="540" y="686.5" width="100" height="30" as="geometry" />
        </mxCell>
        <mxCell id="jAtMNxWn4MvKUxgzt-hi-59" value="左电机" style="rounded=0;whiteSpace=wrap;html=1;fillColor=#fff2cc;strokeColor=#d6b656;" parent="1" vertex="1">
          <mxGeometry x="270" y="650" width="100" height="30" as="geometry" />
        </mxCell>
        <mxCell id="jAtMNxWn4MvKUxgzt-hi-62" value="右电机" style="rounded=0;whiteSpace=wrap;html=1;fillColor=#fff2cc;strokeColor=#d6b656;" parent="1" vertex="1">
          <mxGeometry x="270" y="686.5" width="100" height="30" as="geometry" />
        </mxCell>
        <mxCell id="jAtMNxWn4MvKUxgzt-hi-63" value="" style="strokeWidth=2;html=1;shape=mxgraph.flowchart.annotation_1;align=left;pointerEvents=1;rotation=-180;" parent="1" vertex="1">
          <mxGeometry x="640" y="502.25" width="10" height="54" as="geometry" />
        </mxCell>
        <mxCell id="jAtMNxWn4MvKUxgzt-hi-64" value="" style="strokeWidth=2;html=1;shape=mxgraph.flowchart.annotation_1;align=left;pointerEvents=1;rotation=-180;" parent="1" vertex="1">
          <mxGeometry x="640" y="662" width="10" height="32" as="geometry" />
        </mxCell>
        <mxCell id="jAtMNxWn4MvKUxgzt-hi-65" value="" style="endArrow=none;html=1;rounded=0;strokeWidth=2;edgeStyle=elbowEdgeStyle;exitX=0;exitY=0.5;exitDx=0;exitDy=0;exitPerimeter=0;entryX=1;entryY=0.5;entryDx=0;entryDy=0;startFill=1;startArrow=classic;" parent="1" source="jAtMNxWn4MvKUxgzt-hi-64" edge="1">
          <mxGeometry width="50" height="50" relative="1" as="geometry">
            <mxPoint x="660" y="622.5" as="sourcePoint" />
            <mxPoint x="650" y="521.5" as="targetPoint" />
            <Array as="points">
              <mxPoint x="670" y="590" />
              <mxPoint x="690" y="573.5" />
            </Array>
          </mxGeometry>
        </mxCell>
        <mxCell id="jAtMNxWn4MvKUxgzt-hi-66" value="" style="endArrow=classic;html=1;rounded=0;exitX=-0.003;exitY=0.532;exitDx=0;exitDy=0;entryX=1;entryY=0.5;entryDx=0;entryDy=0;exitPerimeter=0;strokeWidth=2;" parent="1" source="jAtMNxWn4MvKUxgzt-hi-57" target="jAtMNxWn4MvKUxgzt-hi-59" edge="1">
          <mxGeometry width="50" height="50" relative="1" as="geometry">
            <mxPoint x="-130" y="440" as="sourcePoint" />
            <mxPoint x="-80" y="390" as="targetPoint" />
          </mxGeometry>
        </mxCell>
        <mxCell id="jAtMNxWn4MvKUxgzt-hi-67" value="" style="endArrow=classic;html=1;rounded=0;exitX=-0.003;exitY=0.532;exitDx=0;exitDy=0;entryX=1;entryY=0.5;entryDx=0;entryDy=0;exitPerimeter=0;strokeWidth=2;" parent="1" edge="1">
          <mxGeometry width="50" height="50" relative="1" as="geometry">
            <mxPoint x="540" y="701.52" as="sourcePoint" />
            <mxPoint x="370" y="701.52" as="targetPoint" />
          </mxGeometry>
        </mxCell>
        <mxCell id="jAtMNxWn4MvKUxgzt-hi-68" value="摄像头控制按钮" style="rounded=0;whiteSpace=wrap;html=1;fillColor=#ffe6cc;strokeColor=#d79b00;" parent="1" vertex="1">
          <mxGeometry x="400" y="96" width="100" height="30" as="geometry" />
        </mxCell>
        <mxCell id="jAtMNxWn4MvKUxgzt-hi-69" value="摄像头控制信息" style="rounded=0;whiteSpace=wrap;html=1;fillColor=#e1d5e7;strokeColor=#9673a6;" parent="1" vertex="1">
          <mxGeometry x="400" y="352" width="100" height="30" as="geometry" />
        </mxCell>
        <mxCell id="jAtMNxWn4MvKUxgzt-hi-70" value="" style="endArrow=none;html=1;rounded=0;jumpStyle=arc;edgeStyle=elbowEdgeStyle;strokeWidth=2;endFill=1;entryX=0;entryY=0.5;entryDx=0;entryDy=0;startFill=1;startArrow=classic;dashed=1;dashPattern=1 1;" parent="1" source="jAtMNxWn4MvKUxgzt-hi-69" target="jAtMNxWn4MvKUxgzt-hi-68" edge="1">
          <mxGeometry width="50" height="50" relative="1" as="geometry">
            <mxPoint x="370" y="287.5" as="sourcePoint" />
            <mxPoint x="370" y="114.5" as="targetPoint" />
            <Array as="points">
              <mxPoint x="380" y="240" />
            </Array>
          </mxGeometry>
        </mxCell>
        <mxCell id="jAtMNxWn4MvKUxgzt-hi-72" value="摄像头舵机" style="rounded=0;whiteSpace=wrap;html=1;fillColor=#fff2cc;strokeColor=#d6b656;" parent="1" vertex="1">
          <mxGeometry x="400" y="619" width="100" height="30" as="geometry" />
        </mxCell>
        <mxCell id="jAtMNxWn4MvKUxgzt-hi-75" value="" style="edgeStyle=orthogonalEdgeStyle;rounded=0;orthogonalLoop=1;jettySize=auto;html=1;strokeWidth=2;" parent="1" source="jAtMNxWn4MvKUxgzt-hi-47" target="jAtMNxWn4MvKUxgzt-hi-72" edge="1">
          <mxGeometry relative="1" as="geometry" />
        </mxCell>
      </root>
    </mxGraphModel>
  </diagram>
</mxfile>
